# xmcd
#
# Track frame offsets:
# 150
# 11167
# 23540
# 35401
# 47401
# 58767
# 69320
# 83615
# 92996
# 102781
#
# Disc length: 1518 seconds
#
#
# Revision: 0
# Processed by: cddbd v1.5.1PL2 Copyright (c) Steve Scherf et al.
# Submitted via: FreeRIP 2.944 
#
DISCID=7005ec0a
DTITLE=Various Country - Heartaches By The Number - Country Love and Heart...break
DYEAR=2005
DGENRE=Country
TTITLE0=I Can't Help It If I'm Still In Love With You - Hank Williams
TTITLE1=Behind Closed Doors - Charlie Rich
TTITLE2=Heartaches By The Number - Ray Price
TTITLE3=Till I Get It Right - Tammy Wynette
TTITLE4=You Don't Know Me (Live) - Mickey Gilley
TTITLE5=Treasure Of Love - George Jones
TTITLE6=Always Wanting You - Merle Haggard
TTITLE7=One Minute Past Eternity - Jerry Lee Lewis
TTITLE8=From A Jack To A King - Ned Miller
TTITLE9=Husbands And Wives - Roger Miller
EXTD=3 CD Collection From\nDirect Source Special Products, Inc.
EXTT0=
EXTT1=
EXTT2=
EXTT3=
EXTT4=
EXTT5=
EXTT6=
EXTT7=
EXTT8=
EXTT9=
PLAYORDER=
